<svg viewBox="0 0 800 800" xmlns="http://www.w3.org/2000/svg"><path d="M137.16152868220342,415.57528522473893 L136.51293508450254,388.09963760402553 M141.1450276820409,411.44247221805716 L140.50815299831504,384.0377982481106 M137.16152868220342,415.57528522473893 L137.45943394591563,414.1407555981819 M137.45943394591563,414.1407555981819 L138.75996103251254,412.7640605855836 M138.75996103251254,412.7640605855836 L139.82654330931746,412.08270651690003 M139.82654330931746,412.08270651690003 L141.1450276820409,411.44247221805716 M136.51293508450254,388.09963760402553 L136.81223980195017,386.68973675710527 M136.81223980195017,386.68973675710527 L138.11660787988933,385.3366842810022 M138.11660787988933,385.3366842810022 L139.1861301011878,384.6670338043737 M139.1861301011878,384.6670338043737 L140.50815299831504,384.0377982481106 M240.88426682648557,393.81688698836274 L240.4977952128811,366.71556400261414 M141.1450276820409,411.44247221805716 L150.35327620716595,407.7322041109542 M150.35327620716595,407.7322041109542 L159.58270649233532,404.4586282410726 M159.58270649233532,404.4586282410726 L168.27471314359855,401.7766949273705 M168.27471314359855,401.7766949273705 L176.74073648257277,399.53271317237727 M176.74073648257277,399.53271317237727 L185.00450796878587,397.68772332533587 M185.00450796878587,397.68772332533587 L193.09401260545602,396.207527245807 M193.09401260545602,396.207527245807 L201.0416494397199,395.0630601463394 M201.0416494397199,395.0630601463394 L208.88401645309037,394.23080082580555 M208.88401645309037,394.23080082580555 L216.66149371514044,393.69318603449 M216.66149371514044,393.69318603449 L224.4173645296557,393.4389141307064 M224.4173645296557,393.4389141307064 L232.63057852423933,393.4727291763388 M232.63057852423933,393.4727291763388 L240.88426682648557,393.81688698836274 M140.50815299831504,384.0377982481106 L149.74069636742277,380.39129766299106 M149.74069636742277,380.39129766299106 L158.99416767929296,377.1740235206761 M158.99416767929296,377.1740235206761 L167.70855414279322,374.53824398483613 M167.70855414279322,374.53824398483613 L176.1961514249532,372.332898349985 M176.1961514249532,372.332898349985 L184.48078589005416,370.51968796021475 M184.48078589005416,370.51968796021475 L192.59054256228117,369.06499637353824 M192.59054256228117,369.06499637353824 L200.5579264660545,367.9402541886292 M200.5579264660545,367.9402541886292 L208.41964744585314,367.1223417196896 M208.41964744585314,367.1223417196896 L216.21620278086445,366.59399584164066 M216.21620278086445,366.59399584164066 L223.99099673064708,366.34410813903526 M223.99099673064708,366.34410813903526 L232.22415269270576,366.3773401267745 M232.22415269270576,366.3773401267745 L240.4977952128811,366.71556400261414 M359.2385811854796,437.23458683500087 L359.1365842319242,409.3879456521093 M240.88426682648557,393.81688698836274 L249.29627208553632,394.49824751310746 M249.29627208553632,394.49824751310746 L257.53214696761006,395.5039994996424 M257.53214696761006,395.5039994996424 L266.1552410145665,396.9207391597288 M266.1552410145665,396.9207391597288 L274.9583335355496,398.75571716262056 M274.9583335355496,398.75571716262056 L283.98141782013084,401.04928665392634 M283.98141782013084,401.04928665392634 L293.2575071872714,403.84837011028026 M293.2575071872714,403.84837011028026 L302.812666290569,407.2055819437141 M302.812666290569,407.2055819437141 L312.66607529087946,411.17831106248343 M312.66607529087946,411.17831106248343 L322.8296672957454,415.8275961927845 M322.8296672957454,415.8275961927845 L333.307301562178,421.2165703971517 M333.307301562178,421.2165703971517 L344.09293454616596,427.40809971016284 M344.09293454616596,427.40809971016284 L351.81447579446564,432.2501408683462 M351.81447579446564,432.2501408683462 L359.2385811854796,437.23458683500087 M240.4977952128811,366.71556400261414 L248.93005991456354,367.38517778236866 M248.93005991456354,367.38517778236866 L257.1857045788318,368.37359340649255 M257.1857045788318,368.37359340649255 L265.82944340362974,369.76591835607593 M265.82944340362974,369.76591835607593 L274.6535704222018,371.5692844540339 M274.6535704222018,371.5692844540339 L283.69818958687335,373.8233580738435 M283.69818958687335,373.8233580738435 L292.9964107523707,376.5742652240611 M292.9964107523707,376.5742652240611 L302.5743820653306,379.8737302878323 M302.5743820653306,379.8737302878323 L312.4513552198555,383.7781755951738 M312.4513552198555,383.7781755951738 L322.6393228417618,388.34761749707087 M322.6393228417618,388.34761749707087 L333.14219034896996,393.6441391740552 M333.14219034896996,393.6441391740552 L343.95394292983667,399.7295714283526 M343.95394292983667,399.7295714283526 L351.6942933967848,404.48873253597935 M351.6942933967848,404.48873253597935 L359.1365842319242,409.3879456521093 M316.7416302701313,348.8743326111579 L316.5460793415715,322.55137037583415 M359.2385811854796,437.23458683500087 L316.7416302701313,348.8743326111579 M359.1365842319242,409.3879456521093 L316.5460793415715,322.55137037583415 M321.6939206276078,344.1643943795496 L321.5106606458815,317.9234079376549 M316.7416302701313,348.8743326111579 L316.61011494646084,347.5814674968851 M316.61011494646084,347.5814674968851 L317.4179650871072,346.3453059378513 M317.4179650871072,346.3453059378513 L319.0770453351034,345.21164884541406 M319.0770453351034,345.21164884541406 L320.28293096203504,344.66340174875654 M320.28293096203504,344.66340174875654 L321.6939206276078,344.1643943795496 M316.5460793415715,322.55137037583415 L316.41444483522315,321.28099975476954 M316.41444483522315,321.28099975476954 L317.2243719827773,320.06635151112465 M317.2243719827773,320.06635151112465 L318.88750639672014,318.9524284602497 M318.88750639672014,318.9524284602497 L320.09629586077165,318.41372652334775 M320.09629586077165,318.41372652334775 L321.5106606458815,317.9234079376549 M327.67299599284195,342.95034721029054 L327.50389579541064,316.7305035163566 M321.6939206276078,344.1643943795496 L327.67299599284195,342.95034721029054 M321.5106606458815,317.9234079376549 L327.50389579541064,316.7305035163566 M347.77240200657087,345.14560628222944 L347.6501367078391,318.8875356644571 M327.67299599284195,342.95034721029054 L331.61109611000165,342.6439592531403 M331.61109611000165,342.6439592531403 L335.54375766187985,342.6416511976708 M335.54375766187985,342.6416511976708 L339.3164319550158,342.9264551083815 M339.3164319550158,342.9264551083815 L342.77419157335214,343.48178484274575 M342.77419157335214,343.48178484274575 L345.530570317401,344.21336475477995 M345.530570317401,344.21336475477995 L347.77240200657087,345.14560628222944 M327.50389579541064,316.7305035163566 L331.45124880362226,316.42945214016646 M331.45124880362226,316.42945214016646 L335.3931117436738,316.4271842870025 M335.3931117436738,316.4271842870025 L339.1745823877754,316.70702754882365 M339.1745823877754,316.70702754882365 L342.6403777684818,317.2526854843457 M342.6403777684818,317.2526854843457 L345.4031394168466,317.9715255960196 M345.4031394168466,317.9715255960196 L347.6501367078391,318.8875356644571 M494.5894722223252,422.80748887210916 L494.8243232214085,395.2077832660172 M347.77240200657087,345.14560628222944 L494.5894722223252,422.80748887210916 M347.6501367078391,318.8875356644571 L494.8243232214085,395.2077832660172 M437.46751980939746,334.5754442482555 L437.5548074319348,308.5015891136953 M494.5894722223252,422.80748887210916 L437.46751980939746,334.5754442482555 M494.8243232214085,395.2077832660172 L437.5548074319348,308.5015891136953 M244.99316545535547,353.8015456201944 L244.62761232650658,327.39290804197196 M437.46751980939746,334.5754442482555 L422.83652051439924,333.91898216458696 M422.83652051439924,333.91898216458696 L408.2380886749873,333.5774382648303 M408.2380886749873,333.5774382648303 L393.5769628534825,333.5475233223122 M393.5769628534825,333.5475233223122 L378.9667455054774,333.8311347433325 M378.9667455054774,333.8311347433325 L364.4548558036561,334.4272986671115 M364.4548558036561,334.4272986671115 L350.0905249700075,335.3343745084012 M350.0905249700075,335.3343745084012 L335.9242778188832,336.5499729610069 M335.9242778188832,336.5499729610069 L323.3865067079574,337.9051275773166 M323.3865067079574,337.9051275773166 L311.0879937048537,339.5046647121461 M311.0879937048537,339.5046647121461 L299.06511520739747,341.34522936585023 M299.06511520739747,341.34522936585023 L287.35324448261605,343.42308408890847 M287.35324448261605,343.42308408890847 L275.98650678408393,345.73420802430775 M275.98650678408393,345.73420802430775 L264.99743880296717,348.27438701233604 M264.99743880296717,348.27438701233604 L254.8138735367761,350.92950890180816 M254.8138735367761,350.92950890180816 L244.99316545535547,353.8015456201944 M437.5548074319348,308.5015891136953 L422.88975809663435,307.8565805100365 M422.88975809663435,307.8565805100365 L408.25739036104187,307.5209962126964 M408.25739036104187,307.5209962126964 L393.5621970925647,307.4916032754733 M393.5621970925647,307.4916032754733 L378.9180205434529,307.7702659006599 M378.9180205434529,307.7702659006599 L364.37236604964806,308.3560281403185 M364.37236604964806,308.3560281403185 L349.974555843191,309.2472799593302 M349.974555843191,309.2472799593302 L335.7752097585463,310.44167664436253 M335.7752097585463,310.44167664436253 L323.2080562299708,311.7732014569607 M323.2080562299708,311.7732014569607 L310.88062095709824,313.34485566468516 M310.88062095709824,313.34485566468516 L298.82935208369116,315.1533467755354 M298.82935208369116,315.1533467755354 L287.0896937814372,317.1950070310664 M287.0896937814372,317.1950070310664 L275.69584092537843,319.46589068166435 M275.69584092537843,319.46589068166435 L264.680397848045,321.96186248078817 M264.680397848045,321.96186248078817 L254.4722258304116,324.5708006555213 M254.4722258304116,324.5708006555213 L244.62761232650658,327.39290804197196 M177.89132158343355,392.4320474391627 L177.35232472826445,365.3546042168568 M244.99316545535547,353.8015456201944 L234.30827091480265,357.32950850400255 M234.30827091480265,357.32950850400255 L224.37634327383043,361.0654193986554 M224.37634327383043,361.0654193986554 L215.19904289920387,365.01046275063436 M215.19904289920387,365.01046275063436 L206.81956102926966,369.1501786845053 M206.81956102926966,369.1501786845053 L199.98452893452904,373.03408621228266 M199.98452893452904,373.03408621228266 L193.8410550813298,377.0598303312056 M193.8410550813298,377.0598303312056 L188.41030313740129,381.2194926071982 M188.41030313740129,381.2194926071982 L183.7131226592989,385.50490466596693 M183.7131226592989,385.50490466596693 L180.56890060264163,388.93286231634 M180.56890060264163,388.93286231634 L177.89132158343355,392.4320474391627 M244.62761232650658,327.39290804197196 L233.9164780042854,330.8595775854023 M233.9164780042854,330.8595775854023 L223.95989911293296,334.53062925299565 M223.95989911293296,334.53062925299565 L214.75954353419567,338.40723501118265 M214.75954353419567,338.40723501118265 L206.35871609502186,342.47519408400996 M206.35871609502186,342.47519408400996 L199.50600323311338,346.29183275094874 M199.50600323311338,346.29183275094874 L193.34636322294827,350.2479064675324 M193.34636322294827,350.2479064675324 L187.90102375785978,354.33563959325136 M187.90102375785978,354.33563959325136 L183.19089970067458,358.5470106021096 M183.19089970067458,358.5470106021096 L180.03775730779935,361.9157875574746 M180.03775730779935,361.9157875574746 L177.35232472826445,365.3546042168568 M156.9734864205413,397.10590054331874 L156.38170926139466,369.947889361727 M177.89132158343355,392.4320474391627 L176.46864875626935,393.7559299237607 M176.46864875626935,393.7559299237607 L174.2238866389049,394.91185131698165 M174.2238866389049,394.91185131698165 L171.29941697560062,395.86668331834306 M171.29941697560062,395.86668331834306 L167.83882841342913,396.5872694648011 M167.83882841342913,396.5872694648011 L163.9869311157232,397.04054243815966 M163.9869311157232,397.04054243815966 L160.52375967580286,397.1909901047114 M160.52375967580286,397.1909901047114 L156.9734864205413,397.10590054331874 M177.35232472826445,365.3546042168568 L175.92567662207753,366.65565792405863 M175.92567662207753,366.65565792405863 L173.67500000379795,367.7916517853973 M173.67500000379795,367.7916517853973 L170.7430334430232,368.7300264247133 M170.7430334430232,368.7300264247133 L167.27372845627775,369.43819472822906 M167.27372845627775,369.43819472822906 L163.41226392191825,369.88365737987624 M163.41226392191825,369.88365737987624 L159.94059404814794,370.03151284800333 M159.94059404814794,370.03151284800333 L156.38170926139466,369.947889361727 M144.05416722576288,390.4588761530221 L143.43392205429444,363.41546916948806 M156.9734864205413,397.10590054331874 L153.0233032103013,396.7036248102485 M153.0233032103013,396.7036248102485 L149.64374640897975,396.0209639023857 M149.64374640897975,396.0209639023857 L146.92482875620883,395.1044429664857 M146.92482875620883,395.1044429664857 L144.95528059965227,394.0006080077487 M144.95528059965227,394.0006080077487 L143.82268479806947,392.75589217099645 M143.82268479806947,392.75589217099645 L143.58213217476504,391.6273474058358 M143.58213217476504,391.6273474058358 L144.05416722576288,390.4588761530221 M156.38170926139466,369.947889361727 L152.42207970740225,369.5525450933227 M152.42207970740225,369.5525450933227 L149.0345950165502,368.8816481442556 M149.0345950165502,368.8816481442556 L146.30946903939548,367.98092369606604 M146.30946903939548,367.98092369606604 L144.3356269797546,366.89611748939325 M144.3356269797546,366.89611748939325 L143.20084094446975,365.6728640718345 M143.20084094446975,365.6728640718345 L142.96021449613113,364.56378323936735 M142.96021449613113,364.56378323936735 L143.43392205429444,363.41546916948806 M222.14456119775488,346.18535810374294 L221.72748816129877,319.9091876864077 M144.05416722576288,390.4588761530221 L148.37114243178945,385.15819499647927 M148.37114243178945,385.15819499647927 L153.61145697165384,380.0081592216556 M153.61145697165384,380.0081592216556 L159.7662985923777,375.00195023882634 M159.7662985923777,375.00195023882634 L166.80140047614995,370.1581229611004 M166.80140047614995,370.1581229611004 L174.69001085248416,365.486441698248 M174.69001085248416,365.486441698248 L183.40516040686978,360.9964156751253 M183.40516040686978,360.9964156751253 L191.93295120747464,357.11831666178335 M191.93295120747464,357.11831666178335 L201.08836759319337,353.4012781825395 M201.08836759319337,353.4012781825395 L211.29148717804557,349.7004052272378 M211.29148717804557,349.7004052272378 L222.14456119775488,346.18535810374294 M143.43392205429444,363.41546916948806 L147.7637133619285,358.20628883510045 M147.7637133619285,358.20628883510045 L153.01891870440468,353.1452464883702 M153.01891870440468,353.1452464883702 L159.19068661928546,348.2256334935208 M159.19068661928546,348.2256334935208 L166.24464129189212,343.4656758623128 M166.24464129189212,343.4656758623128 L174.15394689718977,338.8749604369055 M174.15394689718977,338.8749604369055 L182.89155261354722,334.46282306710975 M182.89155261354722,334.46282306710975 L191.44099413510628,330.65205369028484 M191.44099413510628,330.65205369028484 L200.6193682656388,326.99959740030647 M200.6193682656388,326.99959740030647 L210.84778446053937,323.3630732231468 M210.84778446053937,323.3630732231468 L221.72748816129877,319.9091876864077 M430.4429613101118,323.7131099895552 L430.5133293250298,297.82896470480813 M222.14456119775488,346.18535810374294 L234.22106315432015,342.70412654040047 M234.22106315432015,342.70412654040047 L246.75567311294566,339.5059890180975 M246.75567311294566,339.5059890180975 L259.83825463895397,336.5639615102754 M259.83825463895397,336.5639615102754 L273.37161196914684,333.8995047172195 M273.37161196914684,333.8995047172195 L287.317234936345,331.51766483270944 M287.317234936345,331.51766483270944 L301.6345770535671,329.4234208450635 M301.6345770535671,329.4234208450635 L316.28127558152596,327.6215303989135 M316.28127558152596,327.6215303989135 L331.2134342438437,326.11639098001683 M331.2134342438437,326.11639098001683 L346.38610643583326,324.91191350955324 M346.38610643583326,324.91191350955324 L360.2090332200432,324.08775283728096 M360.2090332200432,324.08775283728096 L374.1561348465227,323.5118543307537 M374.1561348465227,323.5118543307537 L388.1945547949704,323.1858019640951 M388.1945547949704,323.1858019640951 L402.292120109913,323.11079502964685 M402.292120109913,323.11079502964685 L416.34606228520494,323.28613261571195 M416.34606228520494,323.28613261571195 L430.4429613101118,323.7131099895552 M221.72748816129877,319.9091876864077 L233.83333783025256,316.4885714245975 M233.83333783025256,316.4885714245975 L246.39813980826077,313.3461568891691 M246.39813980826077,313.3461568891691 L259.51198464510253,310.4554212431493 M259.51198464510253,310.4554212431493 L273.0774550854348,307.8374429139707 M273.0774550854348,307.8374429139707 L287.05596413678364,305.4971723345151 M287.05596413678364,305.4971723345151 L301.4068861873354,303.43949455848326 M301.4068861873354,303.43949455848326 L316.0877774702394,301.6690778667823 M316.0877774702394,301.6690778667823 L331.0546592672959,300.1902374338316 M331.0546592672959,300.1902374338316 L346.2625020189444,299.00681118730387 M346.2625020189444,299.00681118730387 L360.1173953877332,298.1970576518397 M360.1173953877332,298.1970576518397 L374.096698423533,297.63122780965494 M374.096698423533,297.63122780965494 L388.1674967656572,297.31087645548297 M388.1674967656572,297.31087645548297 L402.2975616943099,297.2371810662562 M402.2975616943099,297.2371810662562 L416.3839064447168,297.4094527905565 M416.3839064447168,297.4094527905565 L430.5133293250298,297.82896470480813 M429.51330138737933,322.2842642853256 L429.58145080926886,296.4251040396164 M430.4429613101118,323.7131099895552 L429.51330138737933,322.2842642853256 M430.5133293250298,297.82896470480813 L429.58145080926886,296.4251040396164 M442.32230367897915,316.25128153381564 L442.41951112386306,290.4976928606533 M429.51330138737933,322.2842642853256 L429.19343610088816,321.04323127892053 M429.19343610088816,321.04323127892053 L429.7981980314232,319.8576374570768 M429.7981980314232,319.8576374570768 L431.2370768114399,318.7685074885086 M431.2370768114399,318.7685074885086 L433.42040184688784,317.8166530441192 M433.42040184688784,317.8166530441192 L436.2594814366804,317.0426801048518 M436.2594814366804,317.0426801048518 L439.11328894428436,316.5562106228105 M439.11328894428436,316.5562106228105 L442.32230367897915,316.25128153381564 M429.58145080926886,296.4251040396164 L429.2607845939737,295.20577767458497 M429.2607845939737,295.20577767458497 L429.8668759950936,294.0409257920193 M429.8668759950936,294.0409257920193 L431.30900334087994,292.9708544117915 M431.30900334087994,292.9708544117915 L433.4972885084257,292.0356597414345 M433.4972885084257,292.0356597414345 L436.3428367356969,291.2752355248014 M436.3428367356969,291.2752355248014 L439.20315876814715,290.7972829559646 M439.20315876814715,290.7972829559646 L442.41951112386306,290.4976928606533 M461.7622587749398,320.30255716126766 L461.90448624745864,294.478061065636 M442.32230367897915,316.25128153381564 L446.2609533917834,316.16018592505213 M446.2609533917834,316.16018592505213 L450.04186258245085,316.3561490799729 M450.04186258245085,316.3561490799729 L453.53427613542624,316.811657592116 M453.53427613542624,316.811657592116 L456.60666581317975,317.4994561163838 M456.60666581317975,317.4994561163838 L459.12656956903845,318.39243980958446 M459.12656956903845,318.39243980958446 L460.73291421465086,319.2915613458346 M460.73291421465086,319.2915613458346 L461.7622587749398,320.30255716126766 M442.41951112386306,290.4976928606533 L446.3671852305513,290.4081923043495 M446.3671852305513,290.4081923043495 L450.1567812446068,290.60072424803104 M450.1567812446068,290.60072424803104 L453.6572470537678,291.0482575598565 M453.6572470537678,291.0482575598565 L456.73675388950477,291.72401522923207 M456.73675388950477,291.72401522923207 L459.2625348641792,292.60136846008675 M459.2625348641792,292.60136846008675 L460.8726655251846,293.4847548844718 M460.8726655251846,293.4847548844718 L461.90448624745864,294.478061065636 M551.4900515086747,453.62611753915775 L551.8743150683554,425.4997910555381 M461.7622587749398,320.30255716126766 L551.4900515086747,453.62611753915775 M461.90448624745864,294.478061065636 L551.8743150683554,425.4997910555381 M540.985201350894,460.6880060249596 L541.3445880131192,432.4414704695374 M551.4900515086747,453.62611753915775 L551.9691865385679,455.1292689125181 M551.9691865385679,455.1292689125181 L551.419618903376,456.5795092754112 M551.419618903376,456.5795092754112 L549.9196883963913,457.9220158836692 M549.9196883963913,457.9220158836692 L547.5486401294894,459.1016012249358 M547.5486401294894,459.1016012249358 L544.5846514970448,460.0153870969892 M544.5846514970448,460.0153870969892 L540.985201350894,460.6880060249596 M551.8743150683554,425.4997910555381 L552.3550680651618,426.97734099172493 M552.3550680651618,426.97734099172493 L551.8044931566232,428.4028884978694 M551.8044931566232,428.4028884978694 L550.301107113331,429.7225430884541 M550.301107113331,429.7225430884541 L547.9243364701895,430.8820547880106 M547.9243364701895,430.8820547880106 L544.9530374547813,431.7802935804342 M544.9530374547813,431.7802935804342 L541.3445880131192,432.4414704695374 M518.62386425282,458.11914773494544 L518.9257391855353,429.9163199054042 M540.985201350894,460.6880060249596 L536.7671891534038,461.0675736484764 M536.7671891534038,461.0675736484764 L532.4914181172045,461.08684338750345 M532.4914181172045,461.08684338750345 L528.3348641930373,460.7655559247423 M528.3348641930373,460.7655559247423 L524.4740200604247,460.12391147552194 M524.4740200604247,460.12391147552194 L521.2673239905482,459.2456457616286 M521.2673239905482,459.2456457616286 L518.62386425282,458.11914773494544 M541.3445880131192,432.4414704695374 L537.1159204849349,432.81458189227385 M537.1159204849349,432.81458189227385 L532.829256972197,432.83352387874646 M532.829256972197,432.83352387874646 L528.6620369749353,432.5177012549652 M528.6620369749353,432.5177012549652 L524.7912143990279,431.8869717257887 M524.7912143990279,431.8869717257887 L521.5761632717566,431.02364837070854 M521.5761632717566,431.02364837070854 L518.9257391855353,429.9163199054042 M364.16149578915935,375.11637757186094 L364.075757248733,348.338080527098 M518.62386425282,458.11914773494544 L364.16149578915935,375.11637757186094 M518.9257391855353,429.9163199054042 L364.075757248733,348.338080527098 M419.99970642858136,485.3557210943587 L420.05171081798335,456.6906399794538 M364.16149578915935,375.11637757186094 L419.99970642858136,485.3557210943587 M364.075757248733,348.338080527098 L420.05171081798335,456.6906399794538 M567.2822105061192,461.23367527804123 L567.7087596953078,432.97785839689 M419.99970642858136,485.3557210943587 L436.27247010341534,484.686427101237 M436.27247010341534,484.686427101237 L452.25489518832444,483.63849632368294 M452.25489518832444,483.63849632368294 L467.95696062714524,482.21310727856957 M467.95696062714524,482.21310727856957 L483.27178610741754,480.4202320452835 M483.27178610741754,480.4202320452835 L498.1328439382322,478.26932300223496 M498.1328439382322,478.26932300223496 L511.0661179825631,476.0364842162343 M511.0661179825631,476.0364842162343 L523.5342622913831,473.5315160789576 M523.5342622913831,473.5315160789576 L535.4946568810949,470.76413427598345 M535.4946568810949,470.76413427598345 L546.907406043471,467.7446882705496 M546.907406043471,467.7446882705496 L557.3699050043033,464.60109529884875 M557.3699050043033,464.60109529884875 L567.2822105061192,461.23367527804123 M420.05171081798335,456.6906399794538 L436.3666006882899,456.03267434114895 M436.3666006882899,456.03267434114895 L452.39032688931945,455.00248377248926 M452.39032688931945,455.00248377248926 L468.13286389140467,453.6012309499948 M468.13286389140467,453.6012309499948 L483.487027558391,451.838724592869 M483.487027558391,451.838724592869 L498.3860941591538,449.72426370773206 M498.3860941591538,449.72426370773206 L511.3522838984058,447.52927834990544 M511.3522838984058,447.52927834990544 L523.8519868153583,445.0667975935616 M523.8519868153583,445.0667975935616 L535.8424641146661,442.34637927378265 M535.8424641146661,442.34637927378265 L547.2837114555285,439.378204598614 M547.2837114555285,439.378204598614 L557.7721246486168,436.2880245326015 M557.7721246486168,436.2880245326015 L567.7087596953078,432.97785839689 M554.870262088052,353.80390207338365 L555.2358165085477,327.395223540774 M567.2822105061192,461.23367527804123 L577.7717342492152,457.1701197228252 M577.7717342492152,457.1701197228252 L587.2339539763283,452.94211046326376 M587.2339539763283,452.94211046326376 L595.8106669089586,448.49436110892924 M595.8106669089586,448.49436110892924 L603.4018688661971,443.87803294887584 M603.4018688661971,443.87803294887584 L609.9902464168232,439.1113238539445 M609.9902464168232,439.1113238539445 L615.5591625135256,434.2140830712441 M615.5591625135256,434.2140830712441 L620.0935823177587,429.2078523143192 M620.0935823177587,429.2078523143192 L623.5811589780274,424.11581948520006 M623.5811589780274,424.11581948520006 L626.01318304896,418.9626506435431 M626.01318304896,418.9626506435431 L627.385610836635,413.7742133689736 M627.385610836635,413.7742133689736 L627.6996942461805,408.57717242886855 M627.6996942461805,408.57717242886855 L626.9625721500973,403.3985199861465 M626.9625721500973,403.3985199861465 L625.4111629942427,398.77577527492525 M625.4111629942427,398.77577527492525 L623.03264897009,394.20891787246654 M623.03264897009,394.20891787246654 L619.8442740229518,389.7160994809872 M619.8442740229518,389.7160994809872 L615.8662668572919,385.3143683484531 M615.8662668572919,385.3143683484531 L611.1212094376898,381.0194526764202 M611.1212094376898,381.0194526764202 L605.63338565129,376.84558739696377 M605.63338565129,376.84558739696377 L599.427950239093,372.80545542502483 M599.427950239093,372.80545542502483 L592.5301947332496,368.91016002605267 M592.5301947332496,368.91016002605267 L584.9648651185782,365.16927258253855 M584.9648651185782,365.16927258253855 L576.7554966437474,361.5909512569208 M576.7554966437474,361.5909512569208 L567.9238349129225,358.1820911744248 M567.9238349129225,358.1820911744248 L561.5523445080086,355.95694732771204 M561.5523445080086,355.95694732771204 L554.870262088052,353.80390207338365 M567.7087596953078,432.97785839689 L578.2237446292532,428.98344486323526 M578.2237446292532,428.98344486323526 L587.7086171360346,424.82743646794523 M587.7086171360346,424.82743646794523 L596.305528335247,420.4554967841999 M596.305528335247,420.4554967841999 L603.9142514621763,415.9179240084451 M603.9142514621763,415.9179240084451 L610.5174536857181,411.2326131808561 M610.5174536857181,411.2326131808561 L616.0984839563348,406.4190815308644 M616.0984839563348,406.4190815308644 L620.6423009086154,401.4985086319473 M620.6423009086154,401.4985086319473 L624.1365609729139,396.4936906848398 M624.1365609729139,396.4936906848398 L626.5725696193444,391.4288751492416 M626.5725696193444,391.4288751492416 L627.9463115636061,386.329488664549 M627.9463115636061,386.329488664549 L628.2590813344957,381.2217395186715 M628.2590813344957,381.2217395186715 L627.5180751710323,376.1321558488253 M627.5180751710323,376.1321558488253 L625.9610315585888,371.5889970815008 M625.9610315585888,371.5889970815008 L623.5749201116864,367.100836026628 M623.5749201116864,367.100836026628 L620.377052873147,362.6855085196119 M620.377052873147,362.6855085196119 L616.3877318907348,358.3597649198157 M616.3877318907348,358.3597649198157 L611.6296158193804,354.1390573964462 M611.6296158193804,354.1390573964462 L606.1270667362921,350.03736985621447 M606.1270667362921,350.03736985621447 L599.9053169203291,346.0671603794754 M599.9053169203291,346.0671603794754 L592.9897329646255,342.2393342342225 M592.9897329646255,342.2393342342225 L585.4051318356342,338.5632909778585 M585.4051318356342,338.5632909778585 L577.1751142049885,335.0470412134087 M577.1751142049885,335.0470412134087 L568.3214843207375,331.6973543004099 M568.3214843207375,331.6973543004099 L561.9342779456719,329.510857594125 M561.9342779456719,329.510857594125 L555.2358165085477,327.395223540774 M496.4775771224885,340.6582973368679 L496.7031247434419,314.4783838031482 M554.870262088052,353.80390207338365 L544.7074627407748,350.8371877593003 M544.7074627407748,350.8371877593003 L534.1162148597872,348.0924603581199 M534.1162148597872,348.0924603581199 L523.1359117802252,345.5763694343564 M523.1359117802252,345.5763694343564 L511.7789413005217,343.2886346677342 M511.7789413005217,343.2886346677342 L504.2039564110046,341.9249592068642 M504.2039564110046,341.9249592068642 L496.4775771224885,340.6582973368679 M555.2358165085477,327.395223540774 L545.0482821446716,324.4800849561906 M545.0482821446716,324.4800849561906 L534.4314517438974,321.7831011869884 M534.4314517438974,321.7831011869884 L523.4248062366592,319.3107997210667 M523.4248062366592,319.3107997210667 L512.0407542582177,317.06289915313414 M512.0407542582177,317.06289915313414 L504.44778705417093,315.72297671290875 M504.44778705417093,315.72297671290875 L496.7031247434419,314.4783838031482 M488.4764421693588,333.57772072815 L488.6821922516292,307.5212737471445 M496.4775771224885,340.6582973368679 L493.0617426584612,339.9562798343898 M493.0617426584612,339.9562798343898 L490.341469544122,339.05230432114234 M490.341469544122,339.05230432114234 L488.37140239488735,337.99588017196623 M488.37140239488735,337.99588017196623 L487.2051398371986,336.83634592333595 M487.2051398371986,336.83634592333595 L486.89550728511506,335.6227611130865 M486.89550728511506,335.6227611130865 L487.34317194948915,334.58738955762516 M487.34317194948915,334.58738955762516 L488.4764421693588,333.57772072815 M496.7031247434419,314.4783838031482 L493.2791950290043,313.78859989105587 M493.2791950290043,313.78859989105587 L490.5524261495806,312.9003798652156 M490.5524261495806,312.9003798652156 L488.57759741967664,311.8623718272752 M488.57759741967664,311.8623718272752 L487.40843730461717,310.72305559804994 M487.40843730461717,310.72305559804994 L487.0978973827987,309.53063622885725 M487.0978973827987,309.53063622885725 L487.54644430093254,308.5133260236687 M487.54644430093254,308.5133260236687 L488.6821922516292,307.5212737471445 M491.51281374125153,332.20031895219773 L491.72539694792323,306.1679103578614 M488.4764421693588,333.57772072815 L491.51281374125153,332.20031895219773 M488.6821922516292,307.5212737471445 L491.72539694792323,306.1679103578614 M510.55991129872984,331.21415121680303 L510.8165152570419,305.19895722998865 M491.51281374125153,332.20031895219773 L494.6073570354929,331.4221537279468 M494.6073570354929,331.4221537279468 L498.17514200392765,330.9085372652923 M498.17514200392765,330.9085372652923 L502.04746502107855,330.6774107511971 M502.04746502107855,330.6774107511971 L506.0563629610843,330.7470480935376 M506.0563629610843,330.7470480935376 L508.32840990601926,330.9274263593653 M508.32840990601926,330.9274263593653 L510.55991129872984,331.21415121680303 M491.72539694792323,306.1679103578614 L494.8269935478935,305.40332855611354 M494.8269935478935,305.40332855611354 L498.4029663743219,304.89867877771275 M498.4029663743219,304.89867877771275 L502.28422759387826,304.6715875534571 M502.28422759387826,304.6715875534571 L506.3024334655721,304.74000906232266 M506.3024334655721,304.74000906232266 L508.5797830611166,304.91723809100336 M508.5797830611166,304.91723809100336 L510.8165152570419,305.19895722998865 M577.7223982559526,346.18652335075006 L578.1394805873992,319.91033265111594 M510.55991129872984,331.21415121680303 L524.5850651664549,333.5578530200853 M524.5850651664549,333.5578530200853 L538.1727994358969,336.17991180552605 M538.1727994358969,336.17991180552605 L551.3243365300399,339.0830034548415 M551.3243365300399,339.0830034548415 L563.999806881735,342.2623325532162 M563.999806881735,342.2623325532162 L570.945063075573,344.1811518741189 M570.945063075573,344.1811518741189 L577.7223982559526,346.18652335075006 M510.8165152570419,305.19895722998865 L524.8747158273953,307.5017527232796 M524.8747158273953,307.5017527232796 L538.4946623684359,310.0780693413852 M538.4946623684359,310.0780693413852 L551.6775948144134,312.9305438940367 M551.6775948144134,312.9305438940367 L564.3835618133752,316.05447296276265 M564.3835618133752,316.05447296276265 L571.3456415880335,317.93987363450213 M571.3456415880335,317.93987363450213 L578.1394805873992,319.91033265111594 M594.2610767094715,470.22663067915863 L594.7594736521629,441.8180003827904 M577.7223982559526,346.18652335075006 L589.1486294945513,349.9004984871148 M589.1486294945513,349.9004984871148 L599.7839871876341,353.7985021194978 M599.7839871876341,353.7985021194978 L609.7717994623198,357.9352942446991 M609.7717994623198,357.9352942446991 L619.0014775103544,362.27450336445327 M619.0014775103544,362.27450336445327 L627.444667901121,366.80783284328135 M627.444667901121,366.80783284328135 L635.0705863986989,371.52532152648075 M635.0705863986989,371.52532152648075 L641.8466360167268,376.41516405312973 M641.8466360167268,376.41516405312973 L647.7392271065488,381.4635407718397 M647.7392271065488,381.4635407718397 L652.7147884727337,386.65451265321013 M652.7147884727337,386.65451265321013 L656.7406955165254,391.97003693310484 M656.7406955165254,391.97003693310484 L659.7863838172208,397.39004533499843 M659.7863838172208,397.39004533499843 L661.8243180308946,402.8926268544454 M661.8243180308946,402.8926268544454 L662.830835106598,408.454339590557 M662.830835106598,408.454339590557 L662.8390990592525,413.48987826074597 M662.8390990592525,413.48987826074597 L661.9863145031863,418.534587397575 M661.9863145031863,418.534587397575 L660.265843636265,423.5697664874287 M660.265843636265,423.5697664874287 L657.6745017631055,428.5767651450969 M657.6745017631055,428.5767651450969 L654.2124831910594,433.5372498529801 M654.2124831910594,433.5372498529801 L649.8829851193585,438.43341157799625 M649.8829851193585,438.43341157799625 L644.6919134773366,443.2481573892804 M644.6919134773366,443.2481573892804 L638.6473753045428,447.96526385745085 M638.6473753045428,447.96526385745085 L631.7591715848114,452.56944106847243 M631.7591715848114,452.56944106847243 L624.03830946824,457.04638194163067 M624.03830946824,457.04638194163067 L615.4965017384259,461.38276461337995 M615.4965017384259,461.38276461337995 L606.145660785685,465.56618203102255 M606.145660785685,465.56618203102255 L600.3495234836396,467.9205044850851 M600.3495234836396,467.9205044850851 L594.2610767094715,470.22663067915863 M578.1394805873992,319.91033265111594 L589.5937560619425,323.5596861586533 M589.5937560619425,323.5596861586533 L600.2555068537873,327.3899174363523 M600.2555068537873,327.3899174363523 L610.2684145963311,331.454842989079 M610.2684145963311,331.454842989079 L619.5216123056696,335.7187326232392 M619.5216123056696,335.7187326232392 L627.9866681624376,340.17344263527525 M627.9866681624376,340.17344263527525 L635.632710021467,344.809193511687 M635.632710021467,344.809193511687 L642.427044690333,349.61439315558175 M642.427044690333,349.61439315558175 L648.3359797901161,354.5754695193562 M648.3359797901161,354.5754695193562 L653.3258372186772,359.6767670827057 M653.3258372186772,359.6767670827057 L657.3638836083763,364.900561958654 M657.3638836083763,364.900561958654 L660.4194468275117,370.22713849664495 M660.4194468275117,370.22713849664495 L662.4648876376414,375.63496865628406 M662.4648876376414,375.63496865628406 L663.4764455586532,381.1010182352444 M663.4764455586532,381.1010182352444 L663.4870649154975,386.050036380702 M663.4870649154975,386.050036380702 L662.6345103896703,391.00815536421504 M662.6345103896703,391.00815536421504 L660.9120960868446,395.9569956509711 M660.9120960868446,395.9569956509711 L658.3165978649585,400.87822567451565 M658.3165978649585,400.87822567451565 L654.8481796036671,405.75382403009473 M654.8481796036671,405.75382403009473 L650.5100166644963,410.5662835949496 M650.5100166644963,410.5662835949496 L645.3080014562821,415.29879995393424 M645.3080014562821,415.29879995393424 L639.2502349404155,419.9354222861496 M639.2502349404155,419.9354222861496 L632.346518492356,424.4611164104781 M632.346518492356,424.4611164104781 L624.6078651348796,428.86181339559107 M624.6078651348796,428.86181339559107 L616.0459979079538,433.12441204067227 M616.0459979079538,433.12441204067227 L606.6728426503352,437.2367098032661 M606.6728426503352,437.2367098032661 L600.862720075228,439.55103452278956 M600.862720075228,439.55103452278956 L594.7594736521629,441.8180003827904 M426.59629736939644,498.3827315566711 L426.66600897479395,469.49746617572964 M594.2610767094715,470.22663067915863 L582.0486668063076,474.410857439433 M582.0486668063076,474.410857439433 L569.0986361240272,478.30039269063695 M569.0986361240272,478.30039269063695 L555.3706501819532,481.9049000548854 M555.3706501819532,481.9049000548854 L540.9504913733099,485.196963923075 M540.9504913733099,485.196963923075 L525.8884534816602,488.1624239645848 M525.8884534816602,488.1624239645848 L510.23893481110827,490.7879109381259 M510.23893481110827,490.7879109381259 L494.0599510418083,493.06100729829075 M494.0599510418083,493.06100729829075 L479.096814406275,494.79615881041224 M479.096814406275,494.79615881041224 L463.800921044205,496.2294386740865 M463.800921044205,496.2294386740865 L448.21976304281543,497.35453523176704 M448.21976304281543,497.35453523176704 L437.4616264466061,497.94196302502706 M437.4616264466061,497.94196302502706 L426.59629736939644,498.3827315566711 M594.7594736521629,441.8180003827904 L582.5170869444819,445.93122175605816 M582.5170869444819,445.93122175605816 L569.5349085566086,449.75480679182294 M569.5349085566086,449.75480679182294 L555.7725073880088,453.2982435473103 M555.7725073880088,453.2982435473103 L541.3158871486137,456.5345697644844 M541.3158871486137,456.5345697644844 L526.215480836812,459.4498539581229 M526.215480836812,459.4498539581229 L510.5258416025567,462.03094285267144 M510.5258416025567,462.03094285267144 L494.30515418791884,464.2656194694998 M494.30515418791884,464.2656194694998 L479.30328114114565,465.97145558319886 M479.30328114114565,465.97145558319886 L463.96765687039715,467.3805280288674 M463.96765687039715,467.3805280288674 L448.3459189163428,468.486627218428 M448.3459189163428,468.486627218428 L437.5597149207432,469.06413797495065 M437.5597149207432,469.06413797495065 L426.66600897479395,469.49746617572964 M428.29124405706824,501.73006052016217 L428.36555438236405,472.7883129635015 M426.59629736939644,498.3827315566711 L428.29124405706824,501.73006052016217 M426.66600897479395,469.49746617572964 L428.36555438236405,472.7883129635015 M413.9757634099133,509.43110766431 L414.0127539707412,480.35956134645045 M428.29124405706824,501.73006052016217 L428.55874813831133,503.3396982213298 M428.55874813831133,503.3396982213298 L427.77488308702846,504.8780257783469 M427.77488308702846,504.8780257783469 L426.0374290233056,506.2900991182998 M426.0374290233056,506.2900991182998 L423.4452273440959,507.5206542504971 M423.4452273440959,507.5206542504971 L420.09847128754546,508.5141330811447 M420.09847128754546,508.5141330811447 L417.1951126390264,509.06406302093393 M417.1951126390264,509.06406302093393 L413.9757634099133,509.43110766431 M428.36555438236405,472.7883129635015 L428.63384070242034,474.37080375653886 M428.63384070242034,474.37080375653886 L427.8479950511169,475.88319544560306 M427.8479950511169,475.88319544560306 L426.1060437601516,477.2714687442882 M426.1060437601516,477.2714687442882 L423.50707997889356,478.4812888923985 M423.50707997889356,478.4812888923985 L420.1515556351394,479.4580313225421 M420.1515556351394,479.4580313225421 L417.24057136640323,479.9986984692985 M417.24057136640323,479.9986984692985 L414.0127539707412,480.35956134645045 M391.73712939879516,504.6358110370208 L391.7156156245311,475.6450638489702 M413.9757634099133,509.43110766431 L409.4603889110563,509.5918076956505 M409.4603889110563,509.5918076956505 L405.1016525341835,509.37214242918776 M405.1016525341835,509.37214242918776 L401.06046334752693,508.80646070157024 M401.06046334752693,508.80646070157024 L397.4967620684165,507.9295156244863 M397.4967620684165,507.9295156244863 L394.5692162343439,506.77631838248453 M394.5692162343439,506.77631838248453 L392.90397788572784,505.7650378519644 M392.90397788572784,505.7650378519644 L391.73712939879516,504.6358110370208 M414.0127539707412,480.35956134645045 L409.4854892648892,480.5175550144477 M409.4854892648892,480.5175550144477 L405.11526930382,480.3015891724425 M405.11526930382,480.3015891724425 L401.0634354444021,479.7454349668396 M401.0634354444021,479.7454349668396 L397.49035553504166,478.8832620687191 M397.49035553504166,478.8832620687191 L394.5551175936695,477.74949453630234 M394.5551175936695,477.74949453630234 L392.88551356384176,476.7552564106683 M392.88551356384176,476.7552564106683 L391.7156156245311,475.6450638489702 M233.3031751794273,405.2175530482471 L232.8949315680656,377.91989239677963 M391.73712939879516,504.6358110370208 L382.8866132261186,493.73767896308385 M382.8866132261186,493.73767896308385 L372.3439369593169,482.20331555237505 M372.3439369593169,482.20331555237505 L361.7276401633771,471.6997124567404 M361.7276401633771,471.6997124567404 L350.60558876283926,461.65480518130363 M350.60558876283926,461.65480518130363 L339.35234476465286,452.3680504524195 M339.35234476465286,452.3680504524195 L328.24022310047815,444.0010999734562 M328.24022310047815,444.0010999734562 L317.45049041694426,436.6139049062423 M317.45049041694426,436.6139049062423 L307.0946783606037,430.2001735188667 M307.0946783606037,430.2001735188667 L297.2348637596402,424.71417796774176 M297.2348637596402,424.71417796774176 L287.89923012747073,420.088810248214 M287.89923012747073,420.088810248214 L279.09296644398245,416.2470293202461 M279.09296644398245,416.2470293202461 L270.80537768182234,413.10895647999934 M270.80537768182234,413.10895647999934 L263.0142920420435,410.59622786867214 M263.0142920420435,410.59622786867214 L255.68861734096666,408.63476732694846 M255.68861734096666,408.63476732694846 L248.78948525243268,407.15670889333524 M248.78948525243268,407.15670889333524 L242.27076445098098,406.101908292612 M242.27076445098098,406.101908292612 L237.790339519089,405.5762114399067 M237.790339519089,405.5762114399067 L233.3031751794273,405.2175530482471 M391.7156156245311,475.6450638489702 L382.842190976996,464.930857522078 M382.842190976996,464.930857522078 L372.27260000931943,453.59160505216573 M372.27260000931943,453.59160505216573 L361.6295592281059,443.2660773854252 M361.6295592281059,443.2660773854252 L350.47982830224646,433.39182597701927 M350.47982830224646,433.39182597701927 L339.19888574704964,424.263157177561 M339.19888574704964,424.263157177561 L328.05967306482944,416.03889053115273 M328.05967306482944,416.03889053115273 L317.2438419611363,408.77787255358953 M317.2438419611363,408.77787255358953 L306.86313473618463,402.4738440843668 M306.86313473618463,402.4738440843668 L296.9797226576788,397.08179600432265 M296.9797226576788,397.08179600432265 L287.62180949186353,392.5357184181866 M287.62180949186353,392.5357184181866 L278.794558112019,388.75985128075916 M278.794558112019,388.75985128075916 L270.4872180579028,385.6756565242785 M270.4872180579028,385.6756565242785 L262.6775424506006,383.20609391396505 M262.6775424506006,383.20609391396505 L255.33434920518658,381.27834435104324 M255.33434920518658,381.27834435104324 L248.4186665242813,379.8256976140088 M248.4186665242813,379.8256976140088 L241.8842457261773,378.78903641884943 M241.8842457261773,378.78903641884943 L237.39298699788444,378.27238141149263 M237.39298699788444,378.27238141149263 L232.8949315680656,377.91989239677963 M172.97285402798752,416.52125807865065 L172.412274594533,389.02937337914994 M233.3031751794273,405.2175530482471 L227.72990609720077,405.02325185676165 M227.72990609720077,405.02325185676165 L222.07899716588884,405.113754422576 M222.07899716588884,405.113754422576 L215.67445608592323,405.5510699610129 M215.67445608592323,405.5510699610129 L209.0338060019974,406.36356145127974 M209.0338060019974,406.36356145127974 L202.07495920305706,407.58966955075965 M202.07495920305706,407.58966955075965 L194.72299843459444,409.2830696459381 M194.72299843459444,409.2830696459381 L186.91100287394494,411.51062884515017 M186.91100287394494,411.51062884515017 L179.99446435436624,413.8355524973829 M179.99446435436624,413.8355524973829 L172.97285402798752,416.52125807865065 M232.8949315680656,377.91989239677963 L227.30806685684163,377.72893361677575 M227.30806685684163,377.72893361677575 L221.64328660832416,377.81787932146597 M221.64328660832416,377.81787932146597 L215.22291329591775,378.2476723832635 M215.22291329591775,378.2476723832635 L208.5657159811018,379.04618956937105 M208.5657159811018,379.04618956937105 L201.58937788359296,380.2512137610342 M201.58937788359296,380.2512137610342 L194.21876094496895,381.9155030386134 M194.21876094496895,381.9155030386134 L186.38673282095857,384.1047839283073 M186.38673282095857,384.1047839283073 L179.45226992176595,386.38977446624165 M179.45226992176595,386.38977446624165 L172.412274594533,389.02937337914994 M232.58474974168556,461.235050274475 L232.158209850662,432.97921000721624 M172.97285402798752,416.52125807865065 L174.66843248020825,421.2173594885301 M174.66843248020825,421.2173594885301 L177.21431671966502,425.85026574803805 M177.21431671966502,425.85026574803805 L180.60727645936177,430.40915132446474 M180.60727645936177,430.40915132446474 L184.8450976205782,434.88553920895214 M184.8450976205782,434.88553920895214 L190.54119554648645,439.75092468589725 M190.54119554648645,439.75092468589725 L197.27230705579655,444.4893169633205 M197.27230705579655,444.4893169633205 L205.0333981512725,449.08704241190384 M205.0333981512725,449.08704241190384 L213.81860583311115,453.53014301883553 M213.81860583311115,453.53014301883553 L222.77788946951483,457.45999846224817 M222.77788946951483,457.45999846224817 L232.58474974168556,461.235050274475 M172.412274594533,389.02937337914994 L174.1101751193877,393.64491473524134 M174.1101751193877,393.64491473524134 L176.66054862780305,398.1984197767744 M176.66054862780305,398.1984197767744 L180.06018096015862,402.6792452110079 M180.06018096015862,402.6792452110079 L184.30687482277128,407.07905547974315 M184.30687482277128,407.07905547974315 L190.01542930796612,411.86128736281546 M190.01542930796612,411.86128736281546 L196.7617482587243,416.51877517381865 M196.7617482587243,416.51877517381865 L204.54081109132963,421.0380721778961 M204.54081109132963,421.0380721778961 L213.3467638136782,425.40545142357456 M213.3467638136782,425.40545142357456 L222.3275332759467,429.268389379262 M222.3275332759467,429.268389379262 L232.158209850662,432.97921000721624 M348.6907827282822,483.733112731022 L348.5581444402701,455.0954982817015 M232.58474974168556,461.235050274475 L243.96089809900943,465.065005603941 M243.96089809900943,465.065005603941 L256.08136176002114,468.60878472064786 M256.08136176002114,468.60878472064786 L268.9608235282683,471.867771729739 M268.9608235282683,471.867771729739 L282.5136710313783,474.8155803685448 M282.5136710313783,474.8155803685448 L295.2380103553199,477.18960159996254 M295.2380103553199,477.18960159996254 L308.41355066110293,479.28836345079145 M308.41355066110293,479.28836345079145 L321.9924256332923,481.1024174367543 M321.9924256332923,481.1024174367543 L335.1889659072574,482.5512949940392 M335.1889659072574,482.5512949940392 L348.6907827282822,483.733112731022 M232.158209850662,432.97921000721624 L243.5623003227423,436.7440503700174 M243.5623003227423,436.7440503700174 L255.71283963767797,440.22762514393634 M255.71283963767797,440.22762514393634 L268.6245435867563,443.4312844192929 M268.6245435867563,443.4312844192929 L282.2115786798074,446.3290798408514 M282.2115786798074,446.3290798408514 L294.9682166440227,448.662844722885 M294.9682166440227,448.662844722885 L308.1773712463601,450.72603404483516 M308.1773712463601,450.72603404483516 L321.7910396075943,452.5093533777768 M321.7910396075943,452.5093533777768 L335.02151276534346,453.933691470741 M335.02151276534346,453.933691470741 L348.5581444402701,455.0954982817015 M362.65178298039575,491.52662470769417 L362.5547705440649,462.75716896387206 M348.6907827282822,483.733112731022 L352.8885375120293,484.24736796269127 M352.8885375120293,484.24736796269127 L356.4948009193701,485.07170946404995 M356.4948009193701,485.07170946404995 L359.4148236524311,486.15375630789134 M359.4148236524311,486.15375630789134 L361.5524404387194,487.44113221657807 M361.5524404387194,487.44113221657807 L362.8101816337933,488.881288944187 M362.8101816337933,488.881288944187 L363.1138817279936,490.1842154823661 M363.1138817279936,490.1842154823661 L362.65178298039575,491.52662470769417 M348.5581444402701,455.0954982817015 L352.7667225526785,455.60104748378814 M352.7667225526785,455.60104748378814 L356.38226097627313,456.4114352917686 M356.38226097627313,456.4114352917686 L359.3097718206977,457.4751698121978 M359.3097718206977,457.4751698121978 L361.4528438479516,458.74076373039543 M361.4528438479516,458.74076373039543 L362.71375464953843,460.15656026017353 M362.71375464953843,460.15656026017353 L363.0181590027993,461.4374540271418 M363.0181590027993,461.4374540271418 L362.5547705440649,462.75716896387206 M340.3124296979261,496.5812203487605 L340.15675233527185,467.7263693640714 M362.65178298039575,491.52662470769417 L361.14256081523774,493.0285377026277 M361.14256081523774,493.0285377026277 L358.7516332252166,494.3241339915769 M358.7516332252166,494.3241339915769 L355.6310836323286,495.3775493679983 M355.6310836323286,495.3775493679983 L351.9344363407895,496.15295292457955 M351.9344363407895,496.15295292457955 L347.8165361225337,496.6146581631846 M347.8165361225337,496.6146581631846 L344.11199725738004,496.73403340192294 M344.11199725738004,496.73403340192294 L340.3124296979261,496.5812203487605 M362.5547705440649,462.75716896387206 L361.04151817471825,464.2336985472039 M361.04151817471825,464.2336985472039 L358.64426825489903,465.5074045958904 M358.64426825489903,465.5074045958904 L355.51550038099975,466.5430258727918 M355.51550038099975,466.5430258727918 L351.8091425996117,467.3053339079044 M351.8091425996117,467.3053339079044 L347.6804503886495,467.75924255519703 M347.6804503886495,467.75924255519703 L343.9662262657613,467.87660208247485 M343.9662262657613,467.87660208247485 L340.15675233527185,467.7263693640714 M205.6058814067615,470.22802280207736 L205.10749374584208,441.8193688716234 M340.3124296979261,496.5812203487605 L323.2653476583972,495.05962297321906 M323.2653476583972,495.05962297321906 L306.65023924207253,493.1697529374803 M306.65023924207253,493.1697529374803 L290.4350742620638,490.909680622374 M290.4350742620638,490.909680622374 L274.73350019325335,488.2951040217657 M274.73350019325335,488.2951040217657 L259.6083263225465,485.3382964800668 M259.6083263225465,485.3382964800668 L246.5385003830256,482.3959000445435 M246.5385003830256,482.3959000445435 L234.02652326529986,479.1983730591688 M234.02652326529986,479.1983730591688 L222.11141923350448,475.75732840531356 M222.11141923350448,475.75732840531356 L213.6833994014401,473.05577857159244 M213.6833994014401,473.05577857159244 L205.6058814067615,470.22802280207736 M340.15675233527185,467.7263693640714 L323.065362821073,466.23046942788085 M323.065362821073,466.23046942788085 L306.40722471928706,464.37252754428016 M306.40722471928706,464.37252754428016 L290.150252963377,462.1506539395474 M290.150252963377,462.1506539395474 L274.4084136380022,459.58028976805076 M274.4084136380022,459.58028976805076 L259.2446981023106,456.6735102715316 M259.2446981023106,456.6735102715316 L246.14179982359633,453.78092807903414 M246.14179982359633,453.78092807903414 L233.59840052752733,450.63756861398554 M233.59840052752733,450.63756861398554 L221.65362875045435,447.2548562945341 M221.65362875045435,447.2548562945341 L213.20479902543664,444.5991316401062 M213.20479902543664,444.5991316401062 L205.10749374584208,441.8193688716234 M205.6058814067615,470.22802280207736 L195.245919080696,466.20877573865033 M195.245919080696,466.20877573865033 L185.71634705927744,462.04072774143725 M185.71634705927744,462.04072774143725 L177.02844141102267,457.7371991630653 M177.02844141102267,457.7371991630653 L169.18261690717918,453.3069670393476 M169.18261690717918,453.3069670393476 L162.18204573686398,448.7600670930776 M162.18204573686398,448.7600670930776 L156.02937028295636,444.10631147765065 M156.02937028295636,444.10631147765065 L150.7266992982709,439.35532160966835 M150.7266992982709,439.35532160966835 L146.27567205628415,434.5165017794282 M146.27567205628415,434.5165017794282 L142.33050495308555,429.0482122294107 M142.33050495308555,429.0482122294107 L139.43970768519034,423.49515276834023 M139.43970768519034,423.49515276834023 L138.04020751166797,419.55090001254075 M138.04020751166797,419.55090001254075 L137.16152868220342,415.57528522473893 M205.10749374584208,441.8193688716234 L194.7224125646555,437.86838454268445 M194.7224125646555,437.86838454268445 L185.17004274731116,433.771185537999 M185.17004274731116,433.771185537999 L176.46167297680293,429.54087193011014 M176.46167297680293,429.54087193011014 L168.59770255711464,425.186077282673 M168.59770255711464,425.186077282673 L161.58129299600466,420.71667202034206 M161.58129299600466,420.71667202034206 L155.4150730875171,416.14230633215107 M155.4150730875171,416.14230633215107 L150.1011352405749,411.4724424228423 M150.1011352405749,411.4724424228423 L145.64109997461566,406.7163285560139 M145.64109997461566,406.7163285560139 L141.68854801796954,401.3416014549933 M141.68854801796954,401.3416014549933 L138.7930982889809,395.88366070193854 M138.7930982889809,395.88366070193854 L137.39194623833367,392.0070340847851 M137.39194623833367,392.0070340847851 L136.51293508450254,388.09963760402553" stroke="black"  stroke-width="4"  fill="red"/></svg>