<svg viewBox="0 0 800 800" xmlns="http://www.w3.org/2000/svg"><path d="M405.26253058359566,398.23858087217536 L405.2625307002502,398.2384405368053 M394.71685933361306,401.7538046221695 L394.716859215917,401.7536637399877 M405.26253058359566,398.23858087217536 L406.3725112652555,398.70846571943696 M406.3725112652555,398.70846571943696 L407.11399992641196,399.25349631419067 M407.11399992641196,399.25349631419067 L407.44327437161155,399.84223703845294 M407.44327437161155,399.84223703845294 L407.3403040153488,400.4405875238057 M407.3403040153488,400.4405875238057 L406.81012096622504,401.0137372783968 M406.81012096622504,401.0137372783968 L405.8827431877269,401.52819640786817 M405.8827431877269,401.52819640786817 L404.611615333277,401.95378339927555 M404.611615333277,401.95378339927555 L403.07060674126626,402.2654436458031 M403.07060674126626,402.2654436458031 L401.3497201590259,402.44477955434724 M401.3497201590259,402.44477955434724 L399.5497604254604,402.4811858950342 M399.5497604254604,402.4811858950342 L397.77629201459905,402.3725077374087 M397.77629201459905,402.3725077374087 L396.1332836707455,402.12517568283135 M396.1332836707455,402.12517568283135 L394.71685933361306,401.7538046221695 M405.2625307002502,398.2384405368053 L406.37251140660567,398.7083253109337 M406.37251140660567,398.7083253109337 L407.1140000843218,399.2533558208738 M407.1140000843218,399.2533558208738 L407.44327453695496,399.8420964535394 M407.44327453695496,399.8420964535394 L407.3403041785277,400.4404468458205 M407.3403041785277,400.4404468458205 L406.8101211177251,401.01359651127865 M406.8101211177251,401.01359651127865 L405.8827433186769,401.52805556076 M405.8827433186769,401.52805556076 L404.61161543597996,401.95364248600674 M404.61161543597996,401.95364248600674 L403.0706068096667,402.2653026840909 M403.0706068096667,402.2653026840909 L401.3497201890812,402.44463856476216 M401.3497201890812,402.44463856476216 L399.5497604153921,402.48104489979096 M399.5497604153921,402.48104489979096 L397.7762919650031,402.3723667590559 M397.7762919650031,402.3723667590559 L396.1332835845553,402.1250347429213 M396.1332835845553,402.1250347429213 L394.716859215917,401.7536637399877 M394.71685933361306,401.7538046221695 L393.6095630168819,401.28028953017935 M393.6095630168819,401.28028953017935 L392.87551237315006,400.73246034676714 M392.87551237315006,400.73246034676714 L392.55672562851385,400.1423938026971 M392.55672562851385,400.1423938026971 L392.6708307911021,399.54449398744504 M392.6708307911021,399.54449398744504 L393.2102449372677,398.973468152911 M393.2102449372677,398.973468152911 L394.1428353791247,398.4623196391475 M394.1428353791247,398.4623196391475 L395.41396328735607,398.0404715468242 M395.41396328735607,398.0404715468242 L396.94975927711073,397.732121945747 M396.94975927711073,397.732121945747 L398.6614147241669,397.5549099896359 M398.6614147241669,397.5549099896359 L400.4502395469695,397.51895432830855 M400.4502395469695,397.51895432830855 L402.21322017675527,397.6263066413824 M402.21322017675527,397.6263066413824 L403.84879051614956,397.87084007319083 M403.84879051614956,397.87084007319083 L405.26253058359566,398.23858087217536 M394.716859215917,401.7536637399877 L393.6095628746095,401.2801487216148 M393.6095628746095,401.2801487216148 L392.8755122146485,400.7323196233892 M392.8755122146485,400.7323196233892 L392.556725463045,400.1422531710926 M392.556725463045,400.1422531710926 L392.67083062829255,399.5443534488522 M392.67083062829255,399.5443534488522 L393.21024478654726,398.9733277031679 M393.21024478654726,398.9733277031679 L394.14283524918596,398.4621792689529 M394.14283524918596,398.4621792689529 L395.41396318566433,398.04033124229176 M395.41396318566433,398.04033124229176 L396.94975920949,397.7319816892165 M396.94975920949,397.7319816892165 L398.6614146944809,397.55476976069514 M398.6614146944809,397.55476976069514 L400.4502395569123,397.5188141049658 M400.4502395569123,397.5188141049658 L402.2132202257595,397.62616640132586 M402.2132202257595,397.62616640132586 L403.84879060141753,397.8706997950649 M403.84879060141753,397.8706997950649 L405.2625307002502,398.2384405368053" stroke="black"  stroke-width="4"  fill="red"/></svg>